<?xml version="1.0" standalone="no"?>
<!DOCTYPE svg PUBLIC "-//W3C//DTD SVG 1.1//EN" "http://www.w3.org/Graphics/SVG/1.1/DTD/svg11.dtd">
<svg xmlns="http://www.w3.org/2000/svg">
<metadata>Copyright (C) 2020 by original authors @ fontello.com</metadata>
<defs>
<font id="saval" horiz-adv-x="1000" >
<font-face font-family="saval" font-weight="400" font-stretch="normal" units-per-em="1000" ascent="850" descent="-150" />
<missing-glyph horiz-adv-x="1000" />
<glyph glyph-name="ico-aceptado" unicode="&#xe800;" d="M120 675c144 168 381 222 584 132 22-10 33-37 23-60-11-23-38-34-60-23-166 73-360 30-478-108-118-138-131-337-32-489 98-152 285-221 459-169 174 51 293 211 293 392l0 0 0 42c0 25 20 45 46 45 25 0 45-20 45-45l0 0 0-42c0-222-146-417-358-480-213-62-441 22-561 208-121 186-105 429 39 597z m848 116c18 18 46 18 64 0 18-18 18-47 0-64l0 0-500-500c-18-18-46-18-64 0l0 0-136 136c-18 18-18 47 0 64 17 18 46 18 64 0l0 0 104-104z" horiz-adv-x="1045" />

<glyph glyph-name="ico-af" unicode="&#xe801;" d="M514 837l333-167c43-21 70-64 70-112l0-397c0-47-27-90-70-112l-333-166c-35-18-77-18-112 0l-333 167c-43 21-69 65-69 112l0 396c0 48 27 91 69 112l334 167c35 17 76 17 111 0z m-431-294l0-382c0-15 9-30 23-37l311-155 0 407-334 167z m750 0l-333-167 0-407 310 155c14 7 23 22 23 37l0 382z m-393 219l-305-152 323-162 324 162-305 152c-12 6-25 6-37 0z" horiz-adv-x="917" />

<glyph glyph-name="ico-buscar" unicode="&#xe802;" d="M425 850c235 0 425-190 425-425 0-99-34-191-91-263l226-227c20-19 20-51 0-70-18-18-46-20-66-5l-4 5-227 226c-72-57-164-91-263-91-235 0-425 190-425 425 0 235 190 425 425 425z m0-100c-179 0-325-145-325-325 0-179 146-325 325-325 89 0 169 35 227 93l3 2 2 3c58 58 93 139 93 227 0 180-145 325-325 325z" horiz-adv-x="1000" />

<glyph glyph-name="ico-agregar" unicode="&#xe804;" d="M500 850c35 0 63-28 63-62l0 0 0-375 375 0c32 0 58-25 62-56l0-7c0-34-28-62-62-62l0 0-375 0 0-376c0-32-25-58-56-62l-7 0c-34 0-62 28-62 62l0 0 0 376-375 0c-33 0-59 24-63 55l0 7c0 35 28 63 63 63l0 0 375 0 0 375c0 32 24 58 55 62z" horiz-adv-x="1000" />

<glyph glyph-name="ico-configuracion" unicode="&#xe805;" d="M500 850c69 0 125-56 125-125l0-4c0-10 7-20 17-24 10-5 22-3 29 5l3 2c23 24 55 37 88 37 34 0 65-13 89-37 23-23 36-55 36-88 0-34-13-65-36-89l-2-2c-8-8-10-20-6-30 1-2 2-5 3-8 5-7 13-12 22-12l7 0c69 0 125-56 125-125 0-69-56-125-125-125l-4 0c-10 0-20-6-24-16-5-11-3-23 5-30l2-3c24-23 37-55 37-88 0-33-13-65-37-89-23-23-55-36-88-36-34 0-65 13-89 36l-2 3c-8 7-20 9-30 5-10-4-17-14-17-25l0-7c0-69-56-125-125-125-69 0-125 56-125 125 0 14-7 24-20 29-10 4-22 2-29-6l-3-2c-23-24-55-37-88-37-33 0-65 13-89 37-23 23-36 55-36 88 0 34 13 65 36 89l3 2c7 8 9 20 5 30-4 10-14 17-25 17l-7 0c-69 0-125 56-125 125 0 69 56 125 125 125 14 0 24 7 29 20 4 10 2 22-5 29l-3 3c-23 23-37 55-37 88 0 34 14 65 37 89 23 23 55 36 88 36 34 0 65-13 89-36l2-2c8-8 20-10 30-6 3 1 5 2 8 3 7 5 12 13 12 22l0 7c0 69 56 125 125 125z m0-83c-23 0-42-19-42-42l0-7c0-44-26-84-67-101-3-2-7-3-11-3-39-14-83-4-114 25l-2 3c-8 8-19 12-30 12-11 0-21-4-29-12-8-8-12-19-12-30 0-11 4-21 12-29l3-3c29-30 39-75 26-112l-3-7c-16-43-56-72-102-73l-4 0c-23 0-42-18-42-41 0-23 19-42 42-42l7 0c44 0 84-26 101-66 18-42 10-90-22-123l-3-2c-8-8-12-19-12-30 0-11 4-21 12-29 8-8 19-12 30-12 11 0 21 4 29 12l3 3c30 29 75 39 112 26l7-3c43-16 72-56 73-102l0-4c0-23 18-42 41-42 23 0 42 19 42 42l0 7c0 44 27 84 67 101 41 18 89 10 122-22l2-3c8-8 19-12 30-12 11 0 21 4 29 12 8 8 12 19 12 30 0 11-4 21-12 29l-3 3c-31 32-40 81-22 122 17 40 57 66 101 66l4 0c23 0 42 19 42 42 0 23-19 42-42 42l-7 0c-44 0-84 26-101 67-2 3-3 7-3 11-14 39-4 83 25 114l3 2c8 8 12 19 12 30 0 11-4 21-12 29-8 8-19 12-30 12-11 0-21-4-29-12l-3-3c-32-31-80-40-121-22-41 17-67 57-67 101l0 4c0 23-19 42-42 42z m0-250c92 0 167-75 167-167 0-92-75-167-167-167-92 0-167 75-167 167 0 92 75 167 167 167z m0-250c46 0 83 37 83 83 0 46-37 83-83 83-46 0-83-37-83-83 0-46 37-83 83-83z" horiz-adv-x="1000" />

<glyph glyph-name="ico-log" unicode="&#xe806;" d="M700 58l-253 758c-15 45-79 45-94 0l-139-416-164 0c-28 0-50-22-50-50 0-28 22-50 50-50l200 0c22 0 41 14 47 34l103 308 253-758c15-45 79-45 94 0l139 416 164 0c28 0 50 22 50 50 0 28-22 50-50 50l-200 0c-21 0-41-14-47-34l-103-308z" horiz-adv-x="1100" />

<glyph glyph-name="ico-guardar" unicode="&#xe807;" d="M700 850c13 0 26-5 35-15l250-250c10-9 15-22 15-35l0-550c0-83-67-150-150-150l-700 0c-83 0-150 67-150 150l0 700c0 83 67 150 150 150l550 0z m-21-100l-379 0 0-150 350 0c28 0 50-22 50-50 0-28-22-50-50-50l0 0-400 0c-28 0-50 22-50 50l0 0 0 200-50 0c-28 0-50-22-50-50l0-700c0-28 22-50 50-50l50 0 0 350c0 26 19 47 44 50l6 0 500 0c28 0 50-22 50-50l0 0 0-350 50 0c28 0 50 22 50 50l0 529-221 221z m21-500l-400 0 0-300 400 0 0 300z" horiz-adv-x="1000" />

<glyph glyph-name="ico-catalogo" unicode="&#xe808;" d="M136 850l367 0 0 0 4-1 0 0 2 0 0 0 4-1 0 0 5-2 0 0 5-2 0 0 5-4 0 0 4-3 273-273c2-2 3-3 4-5l2-2 0 0 2-3 0 0 2-5 0 0 2-6 0 0 0-2 0 0 1-3 0 0 0-3 0 0 0-3 0-546c0-75-61-136-136-136l-546 0c-75 0-136 61-136 136l0 728c0 75 61 136 136 136z m319-91l-319 0c-25 0-45-20-45-45l0-728c0-25 20-45 45-45l546 0c25 0 45 20 45 45l0 500-227 0c-23 0-42 18-45 41l0 5 0 227z m136-591c25 0 45-20 45-45 0-24-17-43-40-45l-5-1-364 0c-25 0-45 21-45 46 0 23 17 42 40 45l5 0 364 0z m0 182c25 0 45-20 45-45 0-24-17-43-40-46l-5 0-364 0c-25 0-45 20-45 46 0 23 17 42 40 45l5 0 364 0z m-273 182c25 0 46-20 46-46 0-23-18-42-40-45l-6 0-91 0c-25 0-45 20-45 45 0 24 17 43 40 46l5 0 91 0z m228 163l0-118 117 0-117 118z" horiz-adv-x="818" />

<glyph glyph-name="ico-exportar" unicode="&#xe809;" d="M417 850c2 0 4 0 6 0l5-2 2 0 3-2 3-1c3-1 5-3 7-5l3-3 292-310c1-1 2-3 4-4l2-5 3-6 1-2 1-5 1-4 0-2 0-3 0-44-333 0c-22 0-39 17-42 39l0 5 0 266-250 0c-23 0-42-20-42-45l0-708c0-25 19-44 42-44l618 0c-17-52-64-89-118-89l-500 0c-69 0-125 59-125 133l0 708c0 74 56 133 125 133l292 0z m296-453l3-3 157-167 3-3 1-2 1-3 1-4 1-5 0-5 0-1-1-3 0-2-1-3-2-3-2-2-1-2-157-166c-10-11-26-11-36 0-9 9-10 24-3 35l3 4 111 118-353 0c-14 0-24 11-26 24l0 4c0 14 9 26 22 27l4 1 353 0-111 119c-9 9-10 24-3 35l3 4c9 9 23 10 33 3z m-255 302l0-159 150 0-150 159z" horiz-adv-x="917" />

<glyph glyph-name="ico-eliminar" unicode="&#xe80a;" d="M1167 850c92 0 166-75 166-167l0-666c0-92-74-167-166-167l-723 0c-16 0-31 7-41 19l-389 444c-19 21-19 53 0 74l389 444c10 12 25 19 41 19l723 0z m0-111l-697 0-341-389 341-389 697 0c30 0 55 25 55 56l0 666c0 31-25 56-55 56z m-540-183c22 22 57 22 79 0l0 0 127-127 128 127c20 20 51 22 73 5l5-5c22-22 22-57 0-79l0 0-127-127 127-127c20-20 22-52 5-74l-5-5c-21-22-57-22-78 0l0 0-128 127-127-127c-20-20-52-21-73-5l-6 5c-21 22-21 57 0 79l0 0 128 127-128 127c-20 20-21 52-4 74z" horiz-adv-x="1333" />

<glyph glyph-name="ico-inicio" unicode="&#xe80b;" d="M133-128c-73 0-133 60-133 134l0 488c0 14 6 27 17 36l400 311c16 12 39 12 55 0l400-311c11-9 17-22 17-36l0-488c0-74-60-134-133-134l-623 0z m311 877l-355-276 0-467c0-25 20-45 44-45l134 0 0 400c0 23 17 42 40 44l4 1 267 0c23 0 42-18 44-41l0-4 0-400 134 0c24 0 44 20 44 45l0 467-356 276z m89-432l-177 0 0-356 177 0 0 356z" horiz-adv-x="900" />

<glyph glyph-name="ico-extraer" unicode="&#xe80c;" d="M864 168c23 0 42-17 45-40l0-5 0-137c0-72-57-132-128-136l-8 0-637 0c-72 0-132 57-136 128l0 8 0 137c0 25 20 45 46 45 23 0 42-17 45-40l0-5 0-137c0-23 18-42 40-45l5 0 637 0c23 0 42 17 45 40l0 5 0 137c0 25 21 45 46 45z m-416 682l3 0 0 0 6 0 0 0 6-1 0 0 6-1 0 0 5-2 0 0 4-3 0 0 5-3 0 0 4-3 182-182c17-18 17-47 0-64-17-17-43-18-60-4l-5 4-104 104 0-527c0-23-17-42-40-45l-5 0c-24 0-43 17-46 40l0 5 0 527-104-104c-16-17-42-18-60-4l-4 4c-17 16-18 42-4 60l4 4 181 182 6 4 0 0 5 3 0 0 5 3 0 0 5 1 0 0 5 2 0 0z" horiz-adv-x="909" />

<glyph glyph-name="ico-modificar" unicode="&#xe80d;" d="M379 759c25 0 46-20 46-45 0-25-21-46-46-46l0 0-243 0c-25 0-45-20-45-45l0 0 0-637c0-25 20-45 45-45l0 0 637 0c25 0 45 20 45 45l0 0 0 243c0 25 21 46 46 46 25 0 45-21 45-46l0 0 0-243c0-75-61-136-136-136l0 0-637 0c-75 0-136 61-136 136l0 0 0 637c0 75 61 136 136 136l0 0z m426 78l182-182c17-18 17-47 0-64l-455-455c-8-8-20-13-32-13l-182 0c-25 0-45 20-45 45l0 182c0 12 5 24 13 32l455 455c17 17 46 17 64 0z m-32-97l-409-409 0-117 117 0 409 409-117 117z" horiz-adv-x="1000" />

<glyph glyph-name="ico-quitar" unicode="&#xe80e;" d="M500 850c276 0 500-224 500-500 0-276-224-500-500-500-276 0-500 224-500 500 0 276 224 500 500 500z m0-91c-226 0-409-183-409-409 0-226 183-409 409-409 226 0 409 183 409 409 0 226-183 409-409 409z m-168-240c17 17 46 17 64 0l0 0 104-105 104 105c17 16 42 17 60 3l5-3c17-18 17-47 0-65l0 0-105-104 105-104c16-17 17-42 3-60l-3-4c-18-18-47-18-65 0l0 0-104 104-104-104c-17-17-42-18-60-4l-4 4c-18 17-18 46 0 64l0 0 104 104-104 104c-17 17-18 42-4 60z" horiz-adv-x="1000" />

<glyph glyph-name="ico-paso-correcto" unicode="&#xe80f;" d="M500-150c-276 0-500 224-500 500 0 276 224 500 500 500 276 0 500-224 500-500 0-276-224-500-500-500z m-10 306c-8-9-20-14-32-14-9 0-18 3-26 9l-208 167c-18 14-21 40-6 58 14 18 40 21 58 7l177-142 266 303c15 17 41 19 59 4 17-15 19-41 3-59l-291-333z" horiz-adv-x="1000" />

<glyph glyph-name="ico-nopass" unicode="&#xe810;" d="M12 838c17 16 43 16 59 0l0 0 917-917c16-16 16-43 0-59-16-16-43-16-59 0l0 0-186 186c-72-46-156-72-243-73-141 0-264 68-369 180-36 38-67 79-94 120-16 25-27 45-33 56-6 13-5 27 1 39 47 88 110 166 185 231l-178 178c-16 16-16 43 0 59z m237-296c-64-55-118-119-160-192 6-9 12-19 18-29 24-38 53-75 85-109 90-97 194-154 307-154 65 1 128 19 183 51l-97 97c-38-24-85-32-129-21-59 16-105 62-121 121-11 44-3 91 21 129z m251 183c141 0 264-68 369-180 36-38 67-79 94-120 16-25 27-45 33-56 6-12 6-27-1-39-27-49-58-96-95-140-15-17-41-20-58-5-18 15-20 41-5 59 27 33 52 69 74 106-5 9-11 19-18 30-24 37-52 74-85 108-90 97-194 154-308 154-26 0-52-3-78-9-22-5-45 8-50 31-5 22 9 45 31 50 32 7 64 11 97 11z m-82-352c-5-15-6-31-2-47 8-29 31-52 60-60 16-4 32-3 47 2z" horiz-adv-x="1000" />

<glyph glyph-name="ico-menos" unicode="&#xe811;" d="M500 850c276 0 500-224 500-500 0-276-224-500-500-500-276 0-500 224-500 500 0 276 224 500 500 500z m0-91c-226 0-409-183-409-409 0-226 183-409 409-409 226 0 409 183 409 409 0 226-183 409-409 409z m182-363c25 0 45-21 45-46 0-25-20-45-45-45l0 0-364 0c-25 0-45 20-45 45 0 25 20 46 45 46l0 0z" horiz-adv-x="1000" />

<glyph glyph-name="ico-trasladar" unicode="&#xe812;" d="M1091 805l0-728c0-16-9-31-23-39l-318-182c-2-1-4-2-6-3l-5-1 0 0-5-2 0 0-5 0 0 0-3 0 0 0-5 0 0 0-4 1 0 0-5 2 0 0-5 2 0 0-342 171-297-170c-30-17-68 5-68 39l0 728c0 16 9 31 23 39l318 182c2 1 4 2 6 3l5 1 0 0 5 2 0 0 5 0 0 0 3 0 0 0 5 0 0 0 4-1 0 0 5-2 0 0 5-2 0 0 342-171 297 170c30 17 68-5 68-39z m-682-74l0-626 273-136 0 626-273 136z m-91-5l-227-130 0-622 227 130 0 622z m682 0l-227-130 0-622 227 130 0 622z" horiz-adv-x="1091" />

<glyph glyph-name="ico-pass" unicode="&#xe813;" d="M667 850c187 0 352-91 492-240 48-51 89-106 125-160 21-33 36-59 44-75 7-16 7-34 0-50-8-15-23-41-44-75-36-54-77-109-125-160-140-149-305-240-492-240-188 0-352 91-492 240-48 51-90 106-125 160-22 34-36 60-44 75-8 16-8 34 0 50 8 16 22 42 44 75 35 54 77 109 125 160 140 149 304 240 492 240z m0-111c-153 0-290-76-411-205-43-46-81-95-113-145-9-14-17-27-24-39 7-12 15-25 24-39 32-50 70-99 113-145 121-129 258-205 411-205 152 0 290 76 411 205 43 46 80 95 112 145 9 14 17 27 24 39-7 12-15 25-24 39-32 50-69 99-112 145-121 129-259 205-411 205z m0-167c122 0 222-99 222-222 0-123-100-222-222-222-123 0-223 99-223 222 0 123 100 222 223 222z m0-111c-62 0-111-50-111-111 0-61 49-111 111-111 61 0 111 50 111 111 0 61-50 111-111 111z" horiz-adv-x="1333" />

<glyph glyph-name="ico-mas" unicode="&#xe814;" d="M500 850c276 0 500-224 500-500 0-276-224-500-500-500-276 0-500 224-500 500 0 276 224 500 500 500z m0-91c-226 0-409-183-409-409 0-226 183-409 409-409 226 0 409 183 409 409 0 226-183 409-409 409z m0-182c25 0 46-20 46-45l0 0 0-136 136 0c23 0 42-18 45-41l0-5c0-25-20-45-45-45l0 0-136 0 0-137c0-23-18-42-41-45l-5 0c-25 0-45 20-45 45l0 0 0 137-137 0c-23 0-42 17-45 40l0 5c0 25 20 46 45 46l0 0 137 0 0 136c0 23 17 42 40 45z" horiz-adv-x="1000" />

<glyph glyph-name="ico-user" unicode="&#xe815;" d="M650 250c134 0 244-106 250-239l0-11 0-100c0-28-22-50-50-50-26 0-47 19-50 44l0 6 0 100c0 80-62 145-141 150l-9 0-400 0c-80 0-145-62-150-141l0-9 0-100c0-28-22-50-50-50-26 0-47 19-50 44l0 6 0 100c0 134 106 244 239 250l11 0 400 0z m-200 600c138 0 250-112 250-250 0-138-112-250-250-250-138 0-250 112-250 250 0 138 112 250 250 250z m0-100c-83 0-150-67-150-150 0-83 67-150 150-150 83 0 150 67 150 150 0 83-67 150-150 150z" horiz-adv-x="900" />
</font>
</defs>
</svg>
