<?xml version="1.0" encoding="UTF-8"?>
<svg width="66px" height="77px" viewBox="0 0 66 77" version="1.1" xmlns="http://www.w3.org/2000/svg" xmlns:xlink="http://www.w3.org/1999/xlink">
    <title>Group</title>
    <g id="Page-1" stroke="none" stroke-width="1" fill="none" fill-rule="evenodd">
        <g id="splash" transform="translate(-148.000000, -296.000000)" fill="#FFFFFF">
            <g id="Group" transform="translate(147.000000, 296.000000)">
                <rect id="Rectangle" x="3" y="47" width="2.75" height="3"></rect>
                <path d="M1.4711,75.8392 C2.8271,76.1572 4.2511,76.4462 5.6521,76.4462 C9.5371,76.4462 10.9561,74.0362 10.9561,71.6872 C10.9561,67.1372 5.6521,65.9362 5.6521,63.3772 C5.6521,62.4642 6.8211,62.1262 7.4911,62.1262 C8.5151,62.1262 9.5991,62.4642 10.5581,63.0092 L10.0791,58.8842 C8.9071,58.6002 7.6391,58.3892 6.3801,58.3892 C2.5331,58.3892 1.2601,60.8672 1.2601,62.9052 C1.2601,67.3442 6.5701,69.1282 6.5701,71.3422 C6.5701,72.5662 5.3401,72.7042 4.6311,72.7042 C3.4161,72.7042 2.0961,72.2022 0.9891,71.5262 L1.4711,75.8392 Z" id="Fill-492"></path>
                <path d="M17.9174,67.4556 L19.6294,62.4636 L19.6724,62.4636 L21.1804,67.4556 L17.9174,67.4556 Z M15.2204,76.1276 L16.8704,71.1086 L22.0134,71.1086 L23.5144,76.1276 L28.1774,76.1276 C26.2134,70.3566 24.1054,64.4206 22.3684,58.7036 L17.1024,58.7036 C14.9264,64.5546 12.7994,70.4566 10.4154,76.1276 L15.2204,76.1276 Z" id="Fill-493"></path>
                <path d="M35.3866,76.1274 C36.6816,72.4934 40.3206,62.2534 41.7126,58.7034 L37.1616,58.7034 L33.0426,71.7334 L29.4216,58.7034 L24.8986,58.7034 C26.5466,63.9254 30.0186,74.5844 30.3746,76.1274 L35.3866,76.1274 Z" id="Fill-494"></path>
                <path d="M45.2182,67.4556 L46.9302,62.4636 L46.9702,62.4636 L48.4842,67.4556 L45.2182,67.4556 Z M42.5152,76.1276 L44.1732,71.1086 L49.3142,71.1086 L50.8172,76.1276 L55.4782,76.1276 C53.5102,70.3566 51.4002,64.4206 49.6692,58.7036 L44.4072,58.7036 C42.2222,64.5546 40.0982,70.4566 37.7142,76.1276 L42.5152,76.1276 Z" id="Fill-495"></path>
                <polygon id="Fill-496" points="56.1061 76.1274 66.9271 76.1274 66.9271 72.3864 60.4931 72.3864 60.4931 58.7034 56.1061 58.7034"></polygon>
                <path d="M63.5615,0.7061 L35.3755,0.7061 C26.1305,0.7061 18.6085,8.2301 18.6085,17.4761 C18.6085,26.7231 26.1305,34.2471 35.3755,34.2471 C35.3795,34.2471 50.2035,34.2161 50.2035,34.2161 C50.6125,34.2161 51.0955,34.4301 51.0955,35.0341 C51.0955,35.5311 50.6905,35.9051 50.1545,35.9051 L17,36 L16.8635,0.3491 L12.1455,0.3491 L12.1455,38.2651 L12.1455,40.6241 L14.5045,40.6241 L50.1545,40.6241 C53.2755,40.6241 55.8125,38.1161 55.8125,35.0341 C55.8125,31.9301 53.3475,29.4981 50.1995,29.4981 C50.1935,29.4981 35.3705,29.5291 35.3705,29.5291 C28.7325,29.5291 23.3275,24.1221 23.3275,17.4761 C23.3275,10.8311 28.7325,5.4241 35.3755,5.4241 L63.5615,5.4241 L63.5615,0.7061 Z" id="Fill-497"></path>
                <path d="M1.0281,0.3485 L1.0281,49.5905 L1.0281,51.9505 L3.3871,51.9505 L50.4571,51.9505 C59.6721,51.9505 66.8901,44.6345 66.8901,35.2955 C66.8901,26.0755 59.3641,18.5745 50.1131,18.5745 L35.3321,18.5745 C34.8131,18.5745 34.3901,18.1545 34.3901,17.6375 C34.3901,17.1185 34.8041,16.7125 35.3321,16.7125 L63.5671,16.7125 L63.5671,11.9945 L35.3321,11.9945 C32.2101,11.9945 29.6731,14.5255 29.6731,17.6375 C29.6731,20.7555 32.2101,23.2925 35.3321,23.2925 L50.1131,23.2925 C56.7621,23.2925 62.1731,28.6765 62.1731,35.2955 C62.1731,41.9885 57.0261,47.2325 50.4571,47.2325 L3.3871,47.2325 L5.7461,49.5905 L5.7461,47 L5.7461,0.3485 L1.0281,0.3485 Z" id="Fill-498"></path>
            </g>
        </g>
    </g>
</svg>